<svg xmlns="http://www.w3.org/2000/svg" width="55.228" height="46.914" viewBox="9 9 55.228 46.914"><g id="Logo_RussianPoker" transform="translate(9.5 9.316)"><g transform="matrix(1, 0, 0, 1, -9.5, -9.32)"><path id="Subtraction_3-2" data-name="Subtraction 3" d="M48.732,45.916h-.071l-21.579-.092A5.47,5.47,0,0,1,22.169,42.6a6.175,6.175,0,0,1-.5-2.164L21.949,5.4a5.145,5.145,0,0,1,.876-3.018A5.387,5.387,0,0,1,25.205.414,6.051,6.051,0,0,1,27.282,0L48.835.1a5.389,5.389,0,0,1,3.841,1.611A5.3,5.3,0,0,1,54.23,5.5L54.046,40.5a5.29,5.29,0,0,1-5.313,5.414ZM38.3,30.7,36.051,36.02a7.745,7.745,0,0,1,4.513,0ZM26.359,24.168A6.891,6.891,0,0,0,38.1,29.613a.333.333,0,0,1,.221-.086l.066,0a.308.308,0,0,1,.194.082A6.9,6.9,0,0,0,50,26.768a18.606,18.606,0,0,1-9.4,2.422,23,23,0,0,1-10.169-2.447,23.831,23.831,0,0,1-4.071-2.574Zm2.369-4.682h0l-.375.375A6.86,6.86,0,0,0,26.672,22.6a22.307,22.307,0,0,0,4.39,2.871,21.586,21.586,0,0,0,9.538,2.3,17.352,17.352,0,0,0,8.349-2.035,14.1,14.1,0,0,0,1.364-.852,6.916,6.916,0,0,0-.58-2.959A16.711,16.711,0,0,1,41.487,24a20.5,20.5,0,0,1-9.077-2.184,21.277,21.277,0,0,1-3.682-2.328Zm4.3-4.338h0l-3.543,3.574a20.278,20.278,0,0,0,3.4,2.139,19.444,19.444,0,0,0,8.605,2.076,15.714,15.714,0,0,0,7.553-1.846l.036-.021c.054-.031.1-.061.154-.086a6.927,6.927,0,0,0-.97-1.2l-1.877-1.877a14.59,14.59,0,0,1-3.533.42,16.968,16.968,0,0,1-7.527-1.814,18.045,18.045,0,0,1-2.3-1.369ZM38.3,9.83h0l-4.769,4.811a18.15,18.15,0,0,0,2.107,1.246,16.3,16.3,0,0,0,7.215,1.738,14.258,14.258,0,0,0,2.943-.3L38.3,9.83Zm-24.664,26.2L1.555,23.85A5.447,5.447,0,0,1,0,20.016,5.338,5.338,0,0,1,1.611,16.2L4.4,13.426l9.239,22.605Zm2.755-7.643L9.9,12.518a5.413,5.413,0,0,1,2.958-7.057l3.631-1.482-.1,24.41Z" transform="translate(9.5 9.5)" stroke="rgba(0,0,0,0)" stroke-width="1" fill="rgba(223,202,91,1)"></path></g></g></svg>