<svg xmlns="http://www.w3.org/2000/svg" width="45.914" height="45.914" viewBox="0 0 45.914 45.914"><g id="roulette"><path id="Path_58255" data-name="Path 58255" d="M426.631,143.7a16.891,16.891,0,0,1,1.6,5.969h5.987a22.832,22.832,0,0,0-2.391-8.97Z" transform="translate(-388.306 -128.06)" fill="rgba(223,202,91,1)"></path><path id="Path_58256" data-name="Path 58256" d="M49.263,51.212a17.164,17.164,0,0,1,4.351-4.343l-3-5.2a23.29,23.29,0,0,0-6.33,6.218Z" transform="translate(-40.305 -37.929)" fill="rgba(223,202,91,1)"></path><path id="Path_58257" data-name="Path 58257" d="M51.237,367.325a17.162,17.162,0,0,1-4.368-4.368l-5.2,3a23.3,23.3,0,0,0,6.565,6.565Z" transform="translate(-37.929 -330.352)" fill="rgba(223,202,91,1)"></path><path id="Path_58258" data-name="Path 58258" d="M367.325,362.958a17.161,17.161,0,0,1-4.368,4.368l3,5.2a23.3,23.3,0,0,0,6.565-6.565Z" transform="translate(-330.352 -330.353)" fill="rgba(223,202,91,1)"></path><path id="Path_58259" data-name="Path 58259" d="M7.589,276.522a16.89,16.89,0,0,1-1.6-5.969H0a22.833,22.833,0,0,0,2.391,8.97Z" transform="translate(0 -246.249)" fill="rgba(223,202,91,1)"></path><path id="Path_58260" data-name="Path 58260" d="M276.522,426.63a16.89,16.89,0,0,1-5.969,1.6v5.987a22.834,22.834,0,0,0,8.97-2.391Z" transform="translate(-246.249 -388.305)" fill="rgba(223,202,91,1)"></path><path id="Path_58261" data-name="Path 58261" d="M428.232,270.552a16.894,16.894,0,0,1-1.6,5.969l5.2,3a22.833,22.833,0,0,0,2.391-8.97h-5.987Z" transform="translate(-388.306 -246.248)" fill="rgba(223,202,91,1)"></path><path id="Path_58262" data-name="Path 58262" d="M149.669,428.232a16.9,16.9,0,0,1-5.969-1.6l-3,5.2a22.835,22.835,0,0,0,8.97,2.391Z" transform="translate(-128.06 -388.306)" fill="rgba(223,202,91,1)"></path><path id="Path_58263" data-name="Path 58263" d="M270.553,5.987a16.894,16.894,0,0,1,5.969,1.6l3-5.2A22.836,22.836,0,0,0,270.553,0Z" transform="translate(-246.249 0)" fill="rgba(223,202,91,1)"></path><path id="Path_58264" data-name="Path 58264" d="M362.957,46.869a17.161,17.161,0,0,1,4.368,4.368l5.2-3a23.3,23.3,0,0,0-6.565-6.565Z" transform="translate(-330.352 -37.929)" fill="rgba(223,202,91,1)"></path><path id="Path_58265" data-name="Path 58265" d="M143.7,7.589a16.894,16.894,0,0,1,5.969-1.6V0a22.834,22.834,0,0,0-8.97,2.391Z" transform="translate(-128.06)" fill="rgba(223,202,91,1)"></path><path id="Path_58266" data-name="Path 58266" d="M5.987,145.927A16.9,16.9,0,0,1,7.6,139.934l-5.017-3.347A22.822,22.822,0,0,0,0,145.927Z" transform="translate(0 -124.317)" fill="rgba(223,202,91,1)"></path><path id="Path_58267" data-name="Path 58267" d="M110.383,96.055a14.328,14.328,0,1,0,14.328,14.328A14.344,14.344,0,0,0,110.383,96.055Zm5.355,14.328A5.322,5.322,0,0,1,115,113.1l3.125,3.125a1.347,1.347,0,1,1-1.906,1.906L113.1,115a5.365,5.365,0,0,1-5.426,0l-3.125,3.125a1.347,1.347,0,1,1-1.906-1.906l3.125-3.125a5.366,5.366,0,0,1,0-5.426l-3.125-3.125a1.347,1.347,0,0,1,1.906-1.906l3.125,3.125a5.365,5.365,0,0,1,5.426,0l3.125-3.125a1.347,1.347,0,0,1,1.906,1.906L115,107.67A5.324,5.324,0,0,1,115.738,110.383Z" transform="translate(-87.426 -87.426)" fill="rgba(223,202,91,1)"></path><path id="Path_58268" data-name="Path 58268" d="M228.6,225.951a2.658,2.658,0,1,0,1.881.778A2.652,2.652,0,0,0,228.6,225.951Z" transform="translate(-205.641 -205.653)" fill="rgba(223,202,91,1)"></path></g></svg>