<svg xmlns="http://www.w3.org/2000/svg" width="55.228" height="46.914" viewBox="0 0 55.228 46.914"><path id="Subtraction_5" data-name="Subtraction 5" d="M15807.733,20436.229c-.023,0-.048,0-.072,0l-21.582-.092a5.463,5.463,0,0,1-4.908-3.221,6.151,6.151,0,0,1-.508-2.164l.288-35.041a5.141,5.141,0,0,1,.873-3.016,5.39,5.39,0,0,1,2.378-1.969,6.064,6.064,0,0,1,2.082-.41l21.552.1a5.39,5.39,0,0,1,3.842,1.611,5.3,5.3,0,0,1,1.549,3.783l-.185,35a5.29,5.29,0,0,1-5.309,5.418Zm-9.155-13.973a2.241,2.241,0,0,0-1.287.438,3.176,3.176,0,0,0-1.021,1.23,4.125,4.125,0,0,0-.39,1.846,5.279,5.279,0,0,0,.718,2.807,4.734,4.734,0,0,0,1.938,1.754,6,6,0,0,0,2.683.6,6.5,6.5,0,0,0,3.047-.764,6.405,6.405,0,0,0,2.385-2.207,6.149,6.149,0,0,0,.928-3.389v-13.863a.785.785,0,0,1,.164-.57.847.847,0,0,1,.555-.148h1.861v-.959h-10.14v.959h2.4a.582.582,0,0,1,.718.719v15.781c0,2.311-.767,3.482-2.277,3.482a3.916,3.916,0,0,1-1.518-.287,2.708,2.708,0,0,1-1.047-.734,1.348,1.348,0,0,1-.374-.84,1.27,1.27,0,0,1,.221-.795,1.6,1.6,0,0,1,.738-.463,3.112,3.112,0,0,0,1.287-.887,2.383,2.383,0,0,0,.544-1.637,2.052,2.052,0,0,0-2.134-2.072Zm-8.318-17.945c.105,0,.2.074.282.215a2.141,2.141,0,0,1,.226,1.094,4.186,4.186,0,0,1-.282,1.5,3.864,3.864,0,0,1-.631,1.016h3.052a4.134,4.134,0,0,1-.888-2.508,2.157,2.157,0,0,1,.21-1.092.42.42,0,0,1,.339-.227.322.322,0,0,1,.216.092,1.94,1.94,0,0,1,.364.611,3.711,3.711,0,0,0,.948,1.467,1.749,1.749,0,0,0,1.077.359,1.943,1.943,0,0,0,1.5-.729,2.723,2.723,0,0,0,.646-1.889,4.227,4.227,0,0,0-.959-2.549l-2.692-3.492c-.767-1-1.521-2.094-2.3-3.338-.944,1.471-1.714,2.594-2.287,3.338l-2.662,3.492a6.208,6.208,0,0,0-.708,1.262,3.018,3.018,0,0,0-.226,1.205,2.887,2.887,0,0,0,.631,1.971,1.918,1.918,0,0,0,1.487.729,1.791,1.791,0,0,0,1.123-.395,3.543,3.543,0,0,0,.929-1.447,1.68,1.68,0,0,1,.338-.574A.418.418,0,0,1,15790.26,20404.311Zm-17.627,22.029-12.079-12.182a5.448,5.448,0,0,1-1.555-3.836,5.333,5.333,0,0,1,1.61-3.816l2.785-2.77,9.24,22.6Zm2.756-7.639-6.49-15.873a5.412,5.412,0,0,1,2.959-7.057l3.631-1.482-.1,24.412Z" transform="translate(-15758.499 -20389.814)" fill="rgba(255, 255, 255, 1)" stroke="rgba(0,0,0,0)" stroke-width="1"></path></svg>