<svg xmlns="http://www.w3.org/2000/svg" width="191.829" height="96.38" viewBox="0 0 191.829 96.38" class="vegas_logo"><defs><filter id="Logo" x="0" y="0" width="191.829" height="96.38" filterUnits="userSpaceOnUse"><feGaussianBlur stdDeviation="3" result="blur"></feGaussianBlur><feFlood flood-color="#3998ff"></feFlood><feComposite operator="in" in2="blur"></feComposite><feComposite in="SourceGraphic"></feComposite></filter></defs><g id="Logo-2" data-name="Logo" transform="translate(9 9)"><g transform="matrix(1, 0, 0, 1, -9, -9)" filter="url(#Logo)"><path id="Logo-3" data-name="Logo" d="M124.574,24.58a4.87,4.87,0,0,0-2.041.423,1.253,1.253,0,1,1,2.053-.45c0,.009-.009.017-.012.027m15.452,5.774a1.256,1.256,0,1,0-1.618.733,1.23,1.23,0,0,0,.442.081,1.257,1.257,0,0,0,1.176-.814m-21.76-6.922a1.256,1.256,0,1,0-.442-.081,1.232,1.232,0,0,0,.442.081m15.88,3.374a1.254,1.254,0,1,0-.883,2.348,1.27,1.27,0,0,0,.44.081,1.255,1.255,0,0,0,.443-2.43M50.636,21.723a1.255,1.255,0,1,0,1.615.735,1.251,1.251,0,0,0-1.615-.735M57.4,20.537a1.253,1.253,0,1,0-.738,1.614,1.255,1.255,0,0,0,.738-1.614M93.53,68.5a1.253,1.253,0,0,0,1.17-1.7,1.231,1.231,0,0,0-.193-.326,21.868,21.868,0,0,1-2.2.475A1.254,1.254,0,0,0,93.53,68.5m49.815-11.588.574-.232a18.764,18.764,0,0,1,1.6-2.471l0-.006,0-.006a15.16,15.16,0,0,1,2.682-2.966L141.845,53.8ZM82,68.832a1.25,1.25,0,0,0,.946-2.073c-.486-.1-.967-.209-1.438-.336a1.254,1.254,0,0,0,.012,2.312,1.266,1.266,0,0,0,.479.1m16.654-2.309a1.254,1.254,0,0,0,1.171-1.706,1.238,1.238,0,0,0-.357-.5,17.778,17.778,0,0,1-2.054,1.1,1.235,1.235,0,0,0,1.241,1.1m-21.732.2a1.253,1.253,0,0,0,1.228-1.509c-.595-.271-1.175-.566-1.736-.889a1.251,1.251,0,0,0,.029,2.3,1.231,1.231,0,0,0,.479.1M139.252,48.3c-.019.007-.034.018-.053.027l1.086,2.248a1.251,1.251,0,0,0-1.033-2.274M45.487,23.643a1.254,1.254,0,0,0-.751,1.564l2.378,0a1.239,1.239,0,0,0-.013-.824,1.256,1.256,0,0,0-1.613-.738m-25.753,9.61a1.256,1.256,0,0,0,.438,2.432,1.314,1.314,0,0,0,.44-.079,1.247,1.247,0,0,0,.545-.4l.251-.586a1.236,1.236,0,0,0-.06-.625,1.254,1.254,0,0,0-1.613-.738m124.7-2.582a1.255,1.255,0,1,0,.733,1.618,1.255,1.255,0,0,0-.733-1.618m-15.789-4.194.009.019.347.718a1.252,1.252,0,1,0-1.408-1.966,3.178,3.178,0,0,1,1.042,1.21ZM87.628,70.218a1.255,1.255,0,1,0-1.17-.8,1.259,1.259,0,0,0,1.17.8m-15.779-5.6a1.256,1.256,0,1,0-.479-.1,1.266,1.266,0,0,0,.479.1m51.027-3.143-3.827,1.548-.652,1.569-.011.025-.011.025c-1.033,2.339-4.16,2.339-7.781,2.339-.436,0-.877,0-1.311-.007L91.824,74.04a12.1,12.1,0,0,1-9.442-.13l-16.9-7.368a3.325,3.325,0,0,1-1.121.2H57.329l23.676,10.32a15.512,15.512,0,0,0,12.11.166L130.342,62.17l-.284-.693Zm21.5-15.154a1.254,1.254,0,0,0,.452,2.424A1.255,1.255,0,0,0,146,47.04a1.253,1.253,0,0,0-1.623-.718m6.146,3.967c.035,0,.069-.005.1-.005a2.989,2.989,0,0,1,1.812.616l.073.054.069.06a10.946,10.946,0,0,0,2.05,1.327l1.731-.7a35.528,35.528,0,0,1-4.142-2.038ZM103.339,62.121a1.253,1.253,0,0,0,.382,2.422,3.1,3.1,0,0,1-.181-1.024,3.311,3.311,0,0,1,.355-1.472,1.246,1.246,0,0,0-.555.075M27.868,53.9,36.8,57.8V54.042l-7.46-3.252ZM17.342,37.411a1.245,1.245,0,0,0-.328.084l.986,2.3a1.251,1.251,0,0,0-.658-2.38M32.386,47a1.252,1.252,0,0,0-.513-1.551l-1.064,2.247a1.234,1.234,0,0,0,.416.078A1.258,1.258,0,0,0,32.386,47m2.759,1.143A1.253,1.253,0,0,0,36.8,49.77v-2.3l-.017-.009a1.258,1.258,0,0,0-1.64.678M18.628,64.895c.561,0,1.283-.026,1.577-.556L37.069,28.731a1.106,1.106,0,0,0,.107-.4c0-1.006-2.352-1.006-4.7-1.006-2.646,0-5.239,0-5.666.927L18.6,47.421,10.369,28.254c-.4-.927-3.047-.927-5.666-.927-2.352,0-4.7,0-4.7,1.006a1.078,1.078,0,0,0,.134.424L17.024,64.339c.267.53.962.556,1.6.556m21.355-.609H64.357c1.149,0,1.176-2.224,1.176-4.4,0-2.224-.027-4.421-1.2-4.421l-15.9.027V49.248H61.6c1.1,0,1.123-1.932,1.123-3.865,0-1.906-.027-3.839-1.123-3.839H48.428v-5.11H64.357c1.149,0,1.176-2.2,1.176-4.421,0-2.2-.027-4.368-1.176-4.368l-24.374.026a.721.721,0,0,0-.721.741V63.518a.762.762,0,0,0,.721.768m48.188.529c11.76,0,17.532-7.81,17.532-18.559,0-.927-.027-2.436-.855-2.436H88.277c-1.1,0-1.122,1.932-1.122,3.839,0,1.933.027,3.865,1.122,3.865h7c-.668,2.806-2.967,4.368-7.163,4.395a9.746,9.746,0,0,1-9.461-9.981,9.522,9.522,0,0,1,9.514-9.716A14.551,14.551,0,0,1,96.4,38.738a.751.751,0,0,0,.454.132c.962,0,1.978-1.8,2.78-3.759a11.82,11.82,0,0,0,.988-3.68,1.085,1.085,0,0,0-.32-.9c-3.448-2.436-7.243-3.442-12.24-3.442-11.2,0-19.35,8.075-19.35,18.85S76.358,64.815,88.17,64.815m22.424-.291c2.592,0,5.158-.027,5.532-.873l1.925-4.633h13.657l1.9,4.633c.347.847,2.913.873,5.505.873,2.3,0,4.623-.053,4.623-1.006a.717.717,0,0,0-.107-.371L126.443,27.566c-.268-.529-.909-.529-1.577-.529s-1.336,0-1.6.529L106.1,63.121a.881.881,0,0,0-.107.4c0,1.006,2.3,1.006,4.6,1.006M124.92,43.4l3.581,8.26h-7.163Zm34.21,21.445c8.258,0,14.7-4.712,14.7-11.172,0-7.678-7.269-10.59-12.027-12.5-2.459-1.006-4.463-1.774-4.463-3.1,0-1.244,1.176-2.144,4.035-2.144a12.7,12.7,0,0,1,6.922,2.2.97.97,0,0,0,.535.159c1.016,0,2.245-1.641,3.288-3.256a7.958,7.958,0,0,0,1.5-3.415.8.8,0,0,0-.214-.636c-2.566-2.2-7.029-3.892-12.027-3.892-8.419,0-13.977,4.766-13.977,11.225,0,6.989,6.842,9.822,11.546,11.728,2.673,1.112,4.918,2.065,4.918,3.627,0,1.35-1.39,2.435-4.731,2.435a14.436,14.436,0,0,1-8.151-3.23.567.567,0,0,0-.347-.133c-.8,0-2.032,1.43-3.127,2.912-.909,1.244-1.764,2.489-1.764,3.336a.756.756,0,0,0,.187.529c2.859,3.257,8.124,5.322,13.2,5.322M152.5,26.559a15.082,15.082,0,0,0-2.829,1.817c-.209.171-.409.347-.6.527L114.835,15.385V18.2a3.443,3.443,0,0,1-3.443,3.442H63.934A3.443,3.443,0,0,1,60.492,18.2V13.8L32.264,24.868A35.635,35.635,0,0,0,28.533,25c-.846.1-3.094.347-3.96,2.225l-.015.031-.013.031-.314.732-6.486,2.543a6.888,6.888,0,0,0-2.829,2.05L13.45,29.2a10.432,10.432,0,0,1,3.039-1.838l44-17.257V3.442A3.442,3.442,0,0,1,63.934,0h47.458a3.443,3.443,0,0,1,3.443,3.442v8.241ZM78.226,15.37c0-.783,0-1.548-.415-1.548L72.2,13.812V4.307c0-.382-.8-.382-1.61-.382s-1.62,0-1.62.382v12.34a.269.269,0,0,0,.254.271H77.8c.424,0,.424-.774.424-1.549M82.973,4.3c0-.373-.8-.382-1.611-.382s-1.62.009-1.62.382V16.61c0,.383.8.392,1.62.392s1.611-.009,1.611-.392Zm14.24-.046c0-.355-.828-.355-1.658-.355-.932,0-1.845,0-2,.327l-2.891,6.753-2.9-6.753c-.141-.327-1.074-.327-2-.327-.829,0-1.657,0-1.657.355a.377.377,0,0,0,.047.15l5.952,12.536c.094.186.339.2.565.2.2,0,.452-.01.555-.2L97.175,4.391a.377.377,0,0,0,.038-.14m3.965,4.654v-1.8h5.613c.4,0,.415-.774.415-1.557s-.01-1.539-.415-1.539L98.2,4.018a.254.254,0,0,0-.254.261V16.648a.268.268,0,0,0,.254.271h8.589c.4,0,.415-.784.415-1.549,0-.783-.01-1.557-.424-1.557l-5.6.009v-2.2h4.643c.386,0,.4-.681.4-1.362s-.01-1.352-.4-1.352Z" transform="translate(9 9)" fill="#fff"></path></g></g></svg>