<svg xmlns="http://www.w3.org/2000/svg" width="55.228" height="46.914" viewBox="9 9 55.228 46.914"><g id="Logo_TexasHoldem" transform="translate(9.5 9.5)"><g transform="matrix(1, 0, 0, 1, -9.5, -9.5)"><path id="Subtraction_5-2" data-name="Subtraction 5" d="M48.734,45.914c-.023,0-.048,0-.072,0L27.08,45.82A5.463,5.463,0,0,1,22.172,42.6a6.151,6.151,0,0,1-.508-2.164l.288-35.041a5.141,5.141,0,0,1,.873-3.016A5.39,5.39,0,0,1,25.2.41,6.064,6.064,0,0,1,27.285,0L48.837.1a5.39,5.39,0,0,1,3.842,1.611,5.3,5.3,0,0,1,1.549,3.783l-.185,35a5.29,5.29,0,0,1-5.309,5.418ZM28.178,38.492h0v1.23l18.751.057.006-1.23-7.37-.021V38h.461v-.758l-.461-.006,0-.76h.461v-.758h-.461l0-1.939h.462c2.172,0,3.954-1.4,4.057-3.186h.282v-.764H44.1v-.76h.276v-.758H44.1l.01-2.135h.277v-.758h-.277v-.078a1.452,1.452,0,0,0-1.564-1.3h-.013a1.448,1.448,0,0,0-1.557,1.287l-.01,5.1a.855.855,0,0,1-.929.76h-.456v-.949h.461V29.48H39.59l.01-4.564h.462v-.76h-.456v-.609h.461v-.76l-.467-.006a1.725,1.725,0,0,0-1.847-1.451h-.035a1.7,1.7,0,0,0-1.8,1.52v.988h-.4v.76h.4l0,.764h-.405v.76h.405l-.01,3.35H35.5l0,.758h.4v.766l-.4-.006v.764h.4l-.01,3.236h-.462a.859.859,0,0,1-.918-.764l0-2.057a1.439,1.439,0,0,0-1.492-1.3h-.072a1.478,1.478,0,0,0-1.563,1.174h-.462v.76l.451,0,0,.76h-.451v.758h.456c.072,1.809,1.848,3.234,4.042,3.248h.461l0,.938-7.693-.02Zm2.2-23.773-2.175.258a2.628,2.628,0,0,0-.344.066l-.287.076a2.494,2.494,0,0,0-1.518,1.154,2.524,2.524,0,0,0-.252,1.893l.144.555A2.517,2.517,0,0,0,27.1,20.238a8.29,8.29,0,0,0,6.324.852,21.742,21.742,0,0,0,8.36-4.344l.328-.277A22.7,22.7,0,0,1,46.662,13.5L49.7,12.012a.146.146,0,0,0,.076-.17.149.149,0,0,0-.123-.111l-.415-.062a20.134,20.134,0,0,0-2.862-.205c-.4,0-.832.014-1.292.041l.159.359a1.29,1.29,0,0,1-.431,1.564,25.393,25.393,0,0,1-5.242,2.867l-1.5.6a20.135,20.135,0,0,1-2.37.791,21.693,21.693,0,0,1-2.18.451,4,4,0,0,1-.55.041,3.731,3.731,0,0,1-2.481-.939.42.42,0,0,1-.144-.3l-.046-.7a7.546,7.546,0,0,1,.066-1.523Zm.785,1.287h0c0,.041,0,.086,0,.125v.031c0,.01,0,.02,0,.029l.035.523a2.9,2.9,0,0,0,1.77.609,3.223,3.223,0,0,0,.432-.029,19.62,19.62,0,0,0,4.359-1.186l1.5-.605a24.974,24.974,0,0,0,5.063-2.77.431.431,0,0,0,.144-.523l-.241-.549-3.513,2.012a18.21,18.21,0,0,1-4.277,1.754,17.771,17.771,0,0,1-4.507.59c-.13,0-.26,0-.387-.006Zm1.989-9.139a1.354,1.354,0,0,0-.349.047,1.337,1.337,0,0,0-.825.627A1.359,1.359,0,0,0,31.83,8.58a6.807,6.807,0,0,1-.211,4.176l-.056.139a6.424,6.424,0,0,0-.375,1.631l.364.01h.328a16.975,16.975,0,0,0,8.4-2.23l3.59-2.053L42.016,6.037a1.275,1.275,0,0,0-1.167-.768,1.257,1.257,0,0,0-.336.043l-.656.176a16.883,16.883,0,0,0-3.108,1.158l-.846.416a17.715,17.715,0,0,1-3.268,1.221l-.221-.826c.492-.127,1.006-.291,1.569-.5l-.666-.082A1.552,1.552,0,0,0,33.147,6.867ZM13.634,36.025,1.555,23.844A5.448,5.448,0,0,1,0,20.008a5.333,5.333,0,0,1,1.61-3.816L4.4,13.422l9.24,22.6Zm2.756-7.639L9.9,12.514a5.412,5.412,0,0,1,2.959-7.057l3.631-1.482-.1,24.412Z" transform="translate(9.5 9.5)" stroke="rgba(0,0,0,0)" stroke-width="1" fill="rgba(255, 255, 255, 1)"></path></g></g></svg>