<svg xmlns="http://www.w3.org/2000/svg" width="57.375" height="34.67" viewBox="0 0 57.375 34.67"><path id="Union_35" data-name="Union 35" d="M18603.564,19810.668a2.393,2.393,0,0,1,0-4.785h38.25a2.393,2.393,0,0,1,0,4.785Zm.43-5.383-6.7-20.123a2.463,2.463,0,0,0,.3-.2l12.75,11.213a.6.6,0,0,0,.84-.055c.02-.021.033-.043.051-.064l10.328-15.494a2.937,2.937,0,0,0,2.258,0l10.332,15.494a.6.6,0,0,0,.822.168c.025-.016.043-.035.066-.049l12.746-11.213a1.959,1.959,0,0,0,.309.2l-6.709,20.123Zm28.018-14.586,2.5-3.744a2.4,2.4,0,0,0,2.654,0l2.416,3.627-4.814,4.238Zm-26.213-.117,2.416-3.627a2.392,2.392,0,0,0,2.652,0l2.5,3.744-2.748,4.121Zm28.846-5.615a1.194,1.194,0,1,1,1.2,1.193A1.193,1.193,0,0,1,18634.645,19784.967Zm-26.3,0a1.194,1.194,0,1,1,1.193,1.193A1.195,1.195,0,0,1,18608.348,19784.967Zm39.443-2.395a1.792,1.792,0,1,1,1.8,1.8A1.794,1.794,0,0,1,18647.791,19782.572Zm-53.791,0a1.794,1.794,0,1,1,1.795,1.8A1.794,1.794,0,0,1,18594,19782.572Zm26.9-4.779a1.792,1.792,0,1,1,1.793,1.789A1.793,1.793,0,0,1,18620.9,19777.793Z" transform="translate(-18594 -19775.998)" fill="rgba(255, 255, 255, 1)"></path></svg>